<?xml version="1.0" standalone="no"?>
<!DOCTYPE svg PUBLIC "-//W3C//DTD SVG 20010904//EN"
 "http://www.w3.org/TR/2001/REC-SVG-20010904/DTD/svg10.dtd">
<svg version="1.0" xmlns="http://www.w3.org/2000/svg"
 width="1188.000000pt" height="1188.000000pt" viewBox="0 0 1188.000000 1188.000000"
 preserveAspectRatio="xMidYMid meet">
<metadata>
Created by potrace 1.16, written by Peter Selinger 2001-2019
</metadata>
<g transform="translate(0.000000,1188.000000) scale(0.100000,-0.100000)"
fill="#F0F0F0" stroke="none">
<path d="M6710 9833 c-356 -25 -643 -79 -965 -184 -50 -16 -98 -29 -107 -29
-29 0 -292 -107 -447 -181 -79 -38 -148 -66 -154 -62 -5 3 -7 1 -4 -4 6 -9
-164 -108 -185 -108 -5 0 -13 -7 -18 -15 -5 -8 -10 -11 -10 -7 0 4 -6 3 -12
-3 -7 -5 -55 -37 -107 -71 -104 -67 -309 -220 -357 -266 -17 -17 -36 -32 -42
-34 -20 -7 -179 -153 -193 -177 -17 -30 -1 -57 32 -57 13 0 78 38 144 83 139
95 302 201 395 257 36 21 67 42 70 46 14 19 111 69 121 63 7 -4 9 -3 6 3 -6 9
50 39 313 169 315 156 804 318 1040 344 41 5 131 17 200 26 176 25 586 25 762
0 70 -9 132 -14 138 -11 5 3 10 1 10 -4 0 -6 18 -11 40 -11 41 0 245 -43 387
-81 248 -66 603 -209 603 -243 0 -14 -31 -46 -45 -46 -4 0 -13 -6 -19 -14 -6
-7 -112 -91 -236 -187 -273 -210 -529 -410 -670 -523 -58 -46 -107 -82 -109
-81 -2 2 -43 -28 -92 -66 l-88 -70 -38 19 c-139 71 -457 163 -704 206 -307 53
-660 53 -989 0 -128 -21 -409 -87 -495 -117 -141 -49 -511 -215 -525 -236 -3
-4 -27 -21 -55 -36 -27 -16 -69 -42 -92 -57 -24 -16 -43 -26 -43 -23 0 8 -143
-91 -177 -123 -85 -80 -125 -112 -134 -106 -5 3 -8 1 -7 -4 2 -6 -38 -52 -87
-104 -93 -97 -192 -218 -178 -218 4 0 4 -4 -2 -8 -5 -4 -18 -23 -29 -42 -10
-19 -41 -75 -68 -124 -166 -297 -213 -728 -117 -1078 110 -402 410 -780 817
-1031 139 -85 270 -152 374 -191 135 -50 365 -116 405 -116 18 0 33 -5 33 -11
0 -5 4 -8 9 -5 5 4 39 -1 76 -9 107 -25 383 -63 547 -76 312 -24 745 3 1018
63 52 12 104 22 115 24 11 1 20 3 20 4 0 1 12 4 26 5 65 8 269 96 289 124 3 4
41 32 85 61 44 29 126 89 183 132 57 43 104 78 106 78 2 0 19 13 38 29 18 16
82 71 143 122 234 200 399 385 470 528 33 64 30 95 -8 99 -21 3 -49 -13 -120
-64 -50 -37 -96 -73 -102 -79 -9 -11 -279 -206 -317 -230 -9 -5 -130 -93 -270
-195 -266 -195 -335 -235 -474 -270 -197 -51 -522 -96 -806 -112 -413 -23
-848 26 -1218 139 -63 19 -120 36 -127 37 -7 1 -16 5 -19 9 -4 4 -16 7 -26 7
-10 0 -18 5 -18 11 0 5 -4 8 -9 4 -6 -3 -47 12 -93 33 -250 115 -468 271 -634
454 -117 130 -260 365 -283 468 -66 291 -62 543 11 780 54 174 212 414 392
594 107 107 376 316 406 316 6 0 10 5 10 10 0 6 7 10 15 10 8 0 15 4 15 8 0 4
16 14 35 21 19 7 35 17 35 23 0 6 3 9 6 6 3 -4 78 29 166 72 182 90 408 168
596 206 96 19 127 22 138 13 20 -16 4 -33 -54 -54 -76 -28 -199 -97 -309 -173
-57 -39 -103 -69 -103 -66 0 3 -28 -16 -62 -43 -131 -103 -298 -323 -346 -457
-23 -63 -26 -87 -26 -206 -1 -131 0 -138 34 -225 99 -254 300 -438 657 -600
67 -30 131 -55 141 -55 10 0 50 -11 88 -24 159 -56 429 -112 689 -143 211 -25
776 -25 985 0 439 53 862 162 1137 292 562 267 960 642 1138 1070 61 147 78
251 72 445 -5 179 -19 248 -86 415 -35 87 -123 253 -150 282 -9 10 -28 34 -41
53 -62 89 -193 250 -232 286 -83 74 -108 94 -118 94 -5 0 -15 9 -22 20 -7 11
-17 20 -21 20 -5 0 -33 20 -63 45 -31 25 -97 70 -147 102 -102 63 -367 194
-378 187 -4 -2 -10 0 -14 6 -3 5 -15 10 -26 10 -10 0 -19 5 -19 11 0 5 -4 8
-8 5 -5 -3 -39 6 -78 20 -233 85 -556 150 -868 174 -118 9 -377 11 -486 3z"/>
<path d="M1343 4430 c-288 -30 -542 -117 -741 -252 -76 -52 -167 -128 -167
-141 0 -3 -14 -21 -31 -39 -43 -46 -104 -138 -152 -233 -151 -297 -148 -639 8
-870 127 -187 309 -305 565 -364 217 -50 396 -67 605 -57 153 6 388 40 405 58
8 7 98 428 93 433 -3 3 -25 -3 -49 -13 -194 -83 -591 -92 -753 -17 -17 8 -38
15 -46 17 -45 9 -150 99 -195 167 -53 79 -83 247 -64 356 6 39 12 78 13 88 0
9 4 17 8 17 4 0 8 9 8 21 0 31 53 126 109 195 76 94 200 179 319 218 177 59
507 62 744 7 43 -10 76 -15 73 -11 -2 4 20 78 51 165 30 86 53 162 51 169 -5
13 -200 58 -332 76 -108 15 -420 21 -522 10z"/>
<path d="M11150 4231 c0 -4 -57 -11 -127 -14 -155 -7 -262 -25 -408 -70 -183
-56 -297 -126 -416 -252 -182 -193 -265 -377 -276 -612 -7 -128 5 -200 46
-303 58 -141 160 -251 313 -336 103 -57 169 -80 310 -106 163 -30 526 -33 683
-5 142 25 217 48 211 64 -3 8 35 211 84 452 50 241 90 443 90 448 0 7 -14 8
-43 1 -23 -5 -178 -7 -345 -6 -240 2 -301 0 -297 -10 2 -7 -11 -75 -29 -152
l-33 -140 133 0 c74 0 134 -2 134 -4 0 -7 -49 -232 -54 -247 -2 -8 -7 -26 -10
-41 -6 -28 -7 -28 -89 -28 -188 0 -319 43 -412 135 -75 73 -112 147 -127 253
-22 153 41 323 166 447 86 85 162 127 293 162 86 22 118 25 263 25 110 0 193
-5 250 -16 47 -9 99 -19 116 -22 l31 -6 51 148 c27 82 49 150 47 152 -5 5
-223 52 -290 62 -38 5 -109 10 -157 10 -52 0 -88 4 -88 10 0 6 -4 10 -10 10
-5 0 -10 -4 -10 -9z"/>
<path d="M8350 4183 c-189 -2 -347 -7 -351 -11 -9 -9 -122 -530 -121 -556 1
-10 -15 -89 -34 -175 -19 -86 -53 -237 -74 -336 -22 -99 -57 -263 -80 -365
-22 -101 -40 -189 -40 -195 0 -6 74 -10 212 -10 l213 0 8 25 c15 50 208 921
209 943 1 49 31 197 40 197 5 0 8 10 7 23 -3 34 0 91 5 86 3 -2 16 -272 31
-599 14 -327 28 -613 31 -635 l4 -40 224 0 224 0 63 130 c34 72 84 174 111
229 26 54 48 103 48 108 0 5 59 129 131 276 71 147 151 312 177 367 52 113 50
110 57 104 2 -3 -5 -43 -16 -90 -43 -179 -71 -302 -120 -529 -76 -357 -119
-567 -119 -582 0 -10 43 -13 215 -13 118 0 215 0 215 0 0 0 23 104 51 230 27
127 68 309 89 405 21 96 52 236 69 310 16 74 32 155 35 180 3 25 28 149 56
275 27 127 50 235 50 240 0 7 -127 9 -365 7 l-365 -2 -26 -53 c-58 -118 -164
-351 -170 -372 -4 -17 -186 -409 -195 -421 -5 -6 -31 -66 -59 -135 l-50 -124
0 155 c0 85 -7 295 -15 465 -8 171 -15 352 -16 403 -1 50 -4 91 -8 90 -3 -2
-161 -4 -351 -5z"/>
<path d="M2284 4041 c3 -4 -10 -80 -29 -167 -19 -88 -55 -251 -80 -364 -109
-500 -135 -619 -150 -685 -9 -38 -17 -85 -17 -102 0 -18 -4 -33 -10 -33 -5 0
-7 -4 -4 -9 7 -10 -14 -122 -25 -136 -5 -7 187 -10 572 -10 318 0 579 1 579 2
0 1 11 67 25 145 14 78 25 145 25 148 0 3 -158 3 -351 2 -314 -3 -351 -2 -346
12 3 8 23 90 44 181 l38 165 322 0 323 0 0 22 c0 32 33 182 41 186 3 1 4 14 1
27 -2 15 0 25 7 25 6 0 11 5 11 10 0 6 -113 10 -320 10 -176 0 -320 3 -320 8
0 4 12 67 27 140 l27 132 338 0 338 0 5 23 c34 150 55 252 55 263 0 12 -94 14
-566 14 -314 0 -563 -4 -560 -9z"/>
<path d="M3559 4043 c-1 -5 -1 -11 0 -15 0 -4 -13 -70 -29 -145 -17 -76 -50
-230 -75 -343 -24 -113 -67 -308 -95 -435 -60 -275 -120 -554 -120 -563 0 -4
105 -7 233 -7 l234 0 37 180 c20 99 49 236 65 305 l27 125 299 5 299 5 9 45
c5 25 17 82 28 126 31 133 64 119 -274 116 l-294 -3 31 156 30 155 313 0 c172
0 313 2 313 5 0 2 14 66 30 142 17 75 30 141 30 145 0 10 -1090 11 -1091 1z"/>
<path d="M4785 4028 c-29 -127 -35 -157 -35 -185 0 -17 -5 -35 -10 -38 -6 -4
-8 -10 -5 -15 5 -7 -24 -147 -135 -655 -51 -233 -130 -596 -130 -599 0 0 261
-1 579 -1 319 0 577 3 575 7 -7 11 39 273 48 276 33 14 -35 17 -342 14 -214
-3 -350 0 -350 5 0 6 8 43 19 84 10 41 28 118 41 172 l22 97 317 0 317 0 27
124 c15 68 27 132 27 142 0 18 -13 19 -316 16 -254 -2 -315 0 -312 10 8 20 37
168 43 221 l6 47 343 0 343 0 27 128 c15 70 30 137 33 150 l5 22 -566 0 -566
0 -5 -22z"/>
<path d="M6016 3918 c-15 -73 -30 -143 -33 -155 l-5 -23 187 0 c173 0 186 -1
181 -17 -11 -36 -34 -159 -34 -183 -1 -14 -6 -43 -11 -65 -16 -61 -201 -921
-201 -933 0 -4 106 -7 235 -7 129 0 235 0 235 0 0 0 23 104 50 230 73 334 107
500 121 588 6 42 16 77 21 77 5 0 7 4 3 9 -3 5 8 74 25 152 16 78 30 144 30
146 0 1 86 3 191 3 105 0 188 4 185 9 -5 8 50 276 60 293 3 4 -269 8 -604 8
l-609 0 -27 -132z"/>
<path d="M7100 3318 c0 -21 -5 -38 -11 -38 -5 0 -7 -4 -4 -10 7 -12 -26 -174
-37 -178 -4 -2 -8 -8 -8 -13 0 -5 97 -9 229 -9 l229 0 6 28 c4 15 8 50 11 77
3 28 13 79 23 115 l18 65 -228 0 -228 0 0 -37z"/>
</g>
</svg>
